<svg version="1.1" xmlns="http://www.w3.org/2000/svg" viewBox="0 0 861.53125 609.47265625">
  <!-- svg-source:excalidraw -->
  
  <defs>
    <style>
      @font-face {
        font-family: "Virgil";
        src: url("https://excalidraw.com/FG_Virgil.woff2");
      }
      @font-face {
        font-family: "Cascadia";
        src: url("https://excalidraw.com/Cascadia.woff2");
      }
    </style>
  </defs>
  <rect x="0" y="0" width="861.53125" height="609.47265625" fill="#ffffff"></rect><g transform="translate(10 54.0390625) rotate(0 77.296875 46.119140625)"><path d="M0.8704680521041155 -1.6366568822413683 C58.56727392649337 -0.2194845760278985, 115.30427335862188 -1.2501947367601678, 153.22458145208657 0.8650236707180738 M-0.5041174003854394 -0.2510340055450797 C43.29610094503442 1.1053588565150858, 86.85019406920183 0.9933121081153513, 154.9181868424639 0.8908225754275918 M156.52911588735878 -1.9532513041049242 C153.9455725754476 36.62663724712439, 155.68239559781318 70.75175094178633, 156.23659423179924 93.97219443134966 M155.29721921589226 -0.8374796649441123 C154.37002755963138 35.28013435513022, 154.91056542360118 71.20199432399606, 154.4501133253798 92.75236065778884 M153.49686292000115 92.40204262547198 C122.63557128092216 90.99838931491979, 90.63344292614492 89.33635057142385, 1.5345738846808672 91.6542686801404 M154.7908537676558 92.63424976263198 C99.2830235784786 93.71323676244445, 43.75923174226773 93.08479253784843, -0.252084375359118 91.87339829001579 M-1.621005205437541 92.69600957445803 C-0.7561291449219061 57.45683163005053, 0.10134130786358586 21.965393477513146, -0.13361581973731518 -1.7692345399409533 M-0.36931359861046076 93.10156272444877 C-0.4620479934349351 58.88967051034089, 0.9923177666530318 25.00674348330577, -0.152670175768435 0.4579454818740487" stroke="#000000" stroke-width="1" fill="none"></path></g><g transform="translate(44.4296875 77.30078125) rotate(0 49.5 11.5)"><text x="0" y="18" font-family="Helvetica, Segoe UI Emoji" font-size="20px" fill="#000000" text-anchor="start" style="white-space: pre;" direction="ltr">API Clients</text></g><g transform="translate(399.5 28.93359375) rotate(0 93.28125 58.4296875)"><path d="M-1.6169155519455671 1.8693920355290174 C61.62477976767696 -2.7310709489829605, 121.60710809816375 -2.4287351502425736, 185.81728360243142 -0.34072703309357166 M0.6839389493688941 0.41702498588711023 C63.32145574889728 -1.1685550231632078, 126.64192447561072 -0.5643732864555204, 187.44431310798973 0.0005357721820473671 M187.93596598692238 -1.4233452696353197 C187.21612821108297 33.773623401824445, 187.0047929692884 65.85834651359183, 184.63490703888237 118.01954889111221 M186.5886347880587 -0.44764561858028173 C187.08145568354652 28.6130488581126, 188.24750090225265 54.55867776015948, 187.26258221175522 116.52781863603741 M185.31674555130303 115.04638194851577 C142.00226081782603 115.77786842774076, 95.88800382177578 115.91420767496747, 1.7026086766272783 115.48280447535217 M185.89302602317184 116.68103952798992 C134.2273334058409 114.83108757381851, 82.52944378991378 114.5416745687049, -0.48103165719658136 116.980250463821 M-1.2364787142723799 118.79535835795105 C-0.06000564599045899 73.0056628437116, -1.2019629886151233 29.415611418217296, 0.5885647851973772 -1.3892537374049425 M-0.37789344880729914 117.56470762286335 C-0.6569706097584276 86.62647982331836, 0.5305685206908675 55.168218187408634, 0.932801335118711 -0.7467524847015738" stroke="#000000" stroke-width="1" fill="none"></path></g><g transform="translate(450.91015625 71.125) rotate(0 43.5 11.5)"><text x="0" y="18" font-family="Helvetica, Segoe UI Emoji" font-size="20px" fill="#000000" text-anchor="start" style="white-space: pre;" direction="ltr">Controller</text></g><g transform="translate(685.56640625 39.44921875) rotate(0 38.5 11.5)"><text x="0" y="18" font-family="Helvetica, Segoe UI Emoji" font-size="20px" fill="#000000" text-anchor="start" style="white-space: pre;" direction="ltr">Program</text></g><g transform="translate(656.69140625 26.0703125) rotate(0 64.998046875 28.669921875)"><path d="M1.8856318909674883 1.3370088916271925 C46.088968668820236 1.2622692160377846, 94.00870750050599 -0.72756455614468, 130.0732623655349 1.0062404852360487 M-0.6334468135610223 0.8888625958934426 C40.80915709434157 -0.07733675587860489, 81.56059793919485 1.0927448297670708, 129.5193309476599 0.1827682415023446 M129.11670366115868 -1.0389784593135118 C129.28038704425472 18.055859117085127, 129.28477484017986 37.38787740332263, 130.42570445127785 59.07800513319671 M130.50290891434997 0.47479833755642176 C131.48567814718848 14.672098472903237, 129.93386123668319 26.64553786758843, 129.9011996379122 56.70615916047245 M131.09529015608132 56.64956170134246 C98.04693896392091 57.721772023369596, 69.295678302156 58.38027275436096, 0.4771383125334978 57.283328054472804 M130.53862434532493 57.83421067986637 C91.03272585733248 56.48862122296061, 53.46621850550946 57.60501285194125, -0.09067377541214228 56.42603083048016 M-1.083088604733348 55.56980466656387 C-1.0849385622996124 45.47018661332222, 1.8991054531079499 30.861045168356938, 1.2078495938330889 0.10774391703307629 M0.8981074383482337 57.88400025758892 C1.1477150234658255 38.1230065361804, 1.0558075520474448 17.856230687391502, 0.1858921041712165 -0.8022395512089133" stroke="#000000" stroke-width="1" fill="none"></path></g><g transform="translate(656.39453125 110.02734375) rotate(0 68.224609375 26.2578125)"><path d="M-1.6424130219966173 -0.9189847987145185 C30.995133008599442 1.2156083710362509, 61.07786756153437 2.9055449493100243, 137.83495265059173 -1.238884536549449 M-0.23728595580905676 -0.030372858978807926 C53.117867740783915 0.18254590788692449, 106.51234429046526 0.3668578044495008, 137.3888349989429 0.21595272328704596 M134.68653851561248 1.6624058801680803 C138.59383389563752 17.12404490194895, 136.19700625748825 32.945213418969075, 136.49806976132095 50.60279247350991 M137.12882499489933 -0.7269524643197656 C135.62810604026322 20.895993964558876, 135.69818724443917 39.90220970343508, 135.65983887109905 52.3594905724749 M136.244263170287 51.104836674407125 C105.78888594121563 51.98338398804084, 76.5944931329206 53.42311838735954, -1.4413998741656542 50.70229914970696 M135.95240302477032 52.72375243809074 C89.56713948677752 51.862029611602665, 42.15802741515435 51.338953583970905, -0.8908344646915793 53.04517987277359 M1.0006706099957228 51.886640103533864 C-1.4567694644302538 34.2043578097815, 0.6895127912193129 20.888074737830898, 1.7110627871006727 -1.288203863427043 M0.9716378310695291 52.44536855723709 C0.6582776874046249 34.39880391052138, 0.7956406146030349 14.37192214802198, -0.9615187486633658 0.5284832706674933" stroke="#000000" stroke-width="1" fill="none"></path></g><g transform="translate(692.619140625 124.78515625) rotate(0 32 11.5)"><text x="32" y="18" font-family="Helvetica, Segoe UI Emoji" font-size="20px" fill="#000000" text-anchor="middle" style="white-space: pre;" direction="ltr">Startup</text></g><g transform="translate(636.67578125 198.578125) rotate(0 81.6953125 29.818359375)"><path d="M1.1193112451583147 -1.72688496299088 C62.61789267646236 2.9993222582423185, 121.84709735300567 1.5541528689944242, 163.30225154943764 -1.8748320955783129 M0.21198376920074224 0.6685230890288949 C49.13112758068746 -0.8168558735972327, 98.15424382717174 -1.8210382421141547, 162.95156401302665 0.08709780965000391 M163.94589731283486 -0.4501871485263109 C164.76442109133419 18.415338321308447, 164.95037131096538 38.08878424707582, 163.9070072490722 57.92426371388137 M163.0184625973925 -0.6513362666592002 C162.1868668791767 12.69172885505941, 162.7467376288887 24.387379769319523, 163.5262303641066 59.44324953947216 M164.3891997653991 57.83921932987869 C130.83798717915926 60.40548702525077, 97.77386756472114 59.639535928239205, 0.07409700937569141 60.37345832400024 M162.8009307673201 60.5064130583778 C120.28267302833119 60.03021473738496, 79.12980129855859 58.55748645517175, -0.08391106221824884 59.165834412910044 M-0.7267457526177168 58.892494140192866 C-0.5940066758829562 41.046668857406985, -0.5042059008318392 26.27377867899122, 1.363884599879384 0.07352077774703503 M-0.6460865745320916 60.39167951140553 C0.7340307623381886 39.51839290883399, -0.6369971543316569 17.99116133708521, -0.6087491819635034 -0.9317625602707267" stroke="#000000" stroke-width="1" fill="none"></path></g><g transform="translate(655.47265625 217.474609375) rotate(0 48 11.5)"><text x="48" y="18" font-family="Helvetica, Segoe UI Emoji" font-size="20px" fill="#000000" text-anchor="middle" style="white-space: pre;" direction="ltr">Repository</text></g><g transform="translate(629.390625 343.5625) rotate(0 87.783203125 43.6796875)"><path d="M-1.76765382476151 1.5822249371558428 C67.64165347898415 0.8936977015726371, 135.43706727381868 2.4116219507448475, 174.60148125700653 -1.8943367879837751 M0.25833691749721766 0.18134450819343328 C38.91025416256707 0.14151354882578748, 79.0255665263503 1.230801336501645, 175.14377336297184 -0.9120897362008691 M173.60650950483978 1.8242143709212542 C176.59733940384015 30.522631839393583, 174.29317839166745 61.08497333435517, 177.08666562847793 87.7998335082084 M176.411534355022 -0.8212424824014306 C175.01017681226236 31.45930183363526, 175.84190810188753 64.1638869440445, 175.9071859875694 87.13808721210808 M175.0995826702565 89.31835720129311 C117.11318447345366 86.27877051441119, 61.42243866617717 88.09629727212833, 0.6562749724835157 86.40857175178826 M175.8896305123344 87.71774214413017 C125.5996822000543 89.64291997565942, 73.91308261976882 90.07022999539095, 0.4429155448451638 87.33564022090286 M1.6033503394573927 86.68361094780266 C0.3320871053297014 59.91168743966991, 0.13060629945583058 29.41640768458892, 1.6610783319920301 1.9121635872870684 M-0.9051224132999778 88.19536259677261 C-0.13107139031504633 69.72238460638182, 0.29284396608258245 52.856735984582336, 0.20106579456478357 -0.35303056333214045" stroke="#000000" stroke-width="1" fill="none"></path></g><g transform="translate(659.7265625 360.671875) rotate(0 58 23)"><text x="0" y="18" font-family="Helvetica, Segoe UI Emoji" font-size="20px" fill="#000000" text-anchor="start" style="white-space: pre;" direction="ltr">DataAccess</text><text x="0" y="41" font-family="Helvetica, Segoe UI Emoji" font-size="20px" fill="#000000" text-anchor="start" style="white-space: pre;" direction="ltr">(DB Context)</text></g><g transform="translate(301.48828125 348.26953125) rotate(0 94.771484375 38.724609375)"><path d="M-0.8142402190715075 -0.1896148007363081 C37.34054591456479 -1.6071023527833677, 75.56759576585246 -2.228563326999829, 190.0946935992688 0.31019905395805836 M-0.32718126382678747 0.6332138171419501 C72.06614115177254 -1.9650076633396747, 145.031928510304 -1.9251984065476062, 189.80358408484608 0.16282835509628057 M189.64156144671142 -0.8319370429962873 C191.81106905998476 22.901273228031293, 192.14733086885698 44.95873467398563, 189.71095478348434 78.30304107256238 M189.87098191771656 -0.47638115379959345 C189.48710867367348 18.450000280111645, 189.5411395391043 37.38373549667669, 189.23079790268093 76.65024781133984 M191.13192236237228 77.82904157228772 C114.54489034299222 76.83678221103722, 43.759980439701025 78.35696476099068, 1.799946604296565 78.67175474949185 M189.99383629951626 77.27670144941662 C123.28641936185704 76.37446665472432, 56.0687647304112 76.38401201075955, 0.6375430086627603 78.28778991010044 M-0.884966554120183 79.22868481464688 C0.8565182993370036 48.88863684594291, 0.41045054888305466 20.340247278728206, 0.8569693546742201 -1.23228052072227 M-0.7458190461620688 78.01804146077488 C0.2935594258887071 52.118828786543986, 0.29829486590449994 27.195414719185656, 0.4250950375571847 -0.23744207713752985" stroke="#000000" stroke-width="1" fill="none"></path></g><g transform="translate(364.701171875 375.912109375) rotate(0 27 11.5)"><text x="27" y="18" font-family="Helvetica, Segoe UI Emoji" font-size="20px" fill="#000000" text-anchor="middle" style="white-space: pre;" direction="ltr">Model</text></g><g transform="translate(334.08984375 231.71875) rotate(0 57.662109375 26.49609375)"><path d="M0.05095130018889904 -0.5297885816544294 C28.746824103548356 -1.1840384307795833, 59.01013884721543 -2.7397015992099116, 116.57465600781143 -0.14312818460166454 M0.8282065847888589 0.36005434300750494 C29.35676523522016 1.5766556382884664, 57.74291456100546 -0.19592924707034398, 116.27498431596905 0.40463489200919867 M116.15031719021499 0.5978076178580523 C115.74112147196436 14.711587132291609, 113.30934548481608 35.04408803649567, 115.13239401392639 53.42035249061883 M115.07566614542156 0.11722439434379339 C115.76937076105845 15.259262732044592, 114.97299974813235 31.405267401227324, 114.72900305781513 53.33551004435868 M113.80627602152526 52.378741296008236 C75.03910307257792 55.04339020631171, 32.6512617123757 51.82919966361381, -1.6178380269557238 54.33278832025827 M115.0546711543575 53.66019824054093 C79.4534852195251 52.85513301551972, 43.55492169832796 54.48264311612282, 0.6051495233550668 52.164829372428365 M0.7836593370884657 53.01204809732736 C-0.789669080691019 34.06154430852112, 2.142099396272024 14.402637886047884, 1.2509008031338453 -1.76733192615211 M0.9340753713622689 53.74443852808327 C-0.1252740558666846 33.64360813996682, -0.5272759434265754 15.743704532551057, 0.042004034854471684 -0.42323353979736567" stroke="#000000" stroke-width="1" fill="none"></path></g><g transform="translate(370.365234375 245.123046875) rotate(0 21 11.5)"><text x="21" y="18" font-family="Helvetica, Segoe UI Emoji" font-size="20px" fill="#000000" text-anchor="middle" style="white-space: pre;" direction="ltr">DTO</text></g><g><g transform="translate(634.9499058933693 196.66816258512728) rotate(0 -32.00386857274492 -24.161013208461526)"><path d="M-0.07672923915088181 -0.597103052213788 C-10.864407015205495 -8.600314920160162, -53.55361417264279 -40.15614731864625, -63.931007906339005 -48.138350504341645 M-1.5761508190445603 1.7038139000348749 C-12.083042948064529 -6.655429958558814, -51.61119164085549 -41.88811541359493, -61.82880591114132 -50.025840316957904" stroke="#000000" stroke-width="1" fill="none"></path></g><g transform="translate(634.9499058933693 196.66816258512728) rotate(0 -32.00386857274492 -24.161013208461526)"><path d="M-34.6904387983336 -41.545037776856674 C-43.24267540313055 -42.72826945007252, -54.13334118681691 -47.250203608496584, -61.104404822709846 -50.46090064110525 M-32.939792805987494 -40.11234123787935 C-40.59976992563237 -41.895314926979204, -48.0561052221776 -44.486478014752855, -61.61692975812672 -50.552058149187935" stroke="#000000" stroke-width="1" fill="none"></path></g><g transform="translate(634.9499058933693 196.66816258512728) rotate(0 -32.00386857274492 -24.161013208461526)"><path d="M-47.96804968811516 -25.898151458953237 C-51.64176946442459 -32.80364200912309, -57.669445254771 -43.05632488601212, -61.104404822709846 -50.46090064110525 M-46.21740369576905 -24.46545491997591 C-50.462753730863284 -30.35748392076049, -54.46485675805714 -37.01925730754281, -61.61692975812672 -50.552058149187935" stroke="#000000" stroke-width="1" fill="none"></path></g></g><g><g transform="translate(527.39453125 142.15625) rotate(0 50.790118869440676 43.44431372992693)"><path d="M0.5221818912774325 -0.9579261470586061 C17.75846520550549 13.544638080522418, 85.56326639540494 73.38568821661174, 102.24304908402264 87.8465536069125 M-0.6628113451413811 1.153558680396527 C16.583591217119245 15.272344688158483, 84.4058213684149 72.04679038105533, 101.68715517075732 86.29146637676284" stroke="#000000" stroke-width="1" fill="none"></path></g><g transform="translate(527.39453125 142.15625) rotate(0 50.790118869440676 43.44431372992693)"><path d="M71.85287035857962 77.40574683969548 C81.02832912518024 76.59344742527605, 83.33671536099214 78.56985559906292, 103.00055880883708 85.59848012497649 M74.36852584356146 76.61166239784738 C83.68501107907875 78.7153146784664, 92.1405821132015 82.48592272904648, 101.76522655544802 86.87527678163723" stroke="#000000" stroke-width="1" fill="none"></path></g><g transform="translate(527.39453125 142.15625) rotate(0 50.790118869440676 43.44431372992693)"><path d="M84.97109997839124 61.62499736358579 C91.60450525189782 64.0592678067793, 91.2615341796953 69.22516165523675, 103.00055880883708 85.59848012497649 M87.48675546337307 60.83091292173769 C92.29967452398171 68.4482043482378, 96.25527300136017 77.6321144697089, 101.76522655544802 86.87527678163723" stroke="#000000" stroke-width="1" fill="none"></path></g></g><g><g transform="translate(734.04296875 258.3828125) rotate(0 1.1971856841631165 44.00609773812815)"><path d="M0.26517473347485065 1.0495595645159483 C0.39447702455023925 15.262431231265266, 0.8031797596563897 72.00007420691351, 1.1100512493401766 86.4557318996638 M-1.0547472607903183 0.5549743905477227 C-0.5648598994625111 15.389772211791325, 3.024843545773377 72.67269386001551, 3.449118629116565 87.45722108570858" stroke="#000000" stroke-width="1" fill="none"></path></g><g transform="translate(734.04296875 258.3828125) rotate(0 1.1971856841631165 44.00609773812815)"><path d="M-6.387254218925667 58.600849026407346 C-5.767748145881365 69.30838405262521, 0.243596107892734 75.99781782193597, 4.582309829089791 87.72963499328121 M-8.741435392183197 59.92143471218948 C-3.1669166918558114 71.3133072641979, 0.9786415788833613 81.98851269266818, 3.5242152353934943 88.44550267936661" stroke="#000000" stroke-width="1" fill="none"></path></g><g transform="translate(734.04296875 258.3828125) rotate(0 1.1971856841631165 44.00609773812815)"><path d="M14.110876890036986 57.62790327991518 C8.019561770832116 68.6997181635897, 7.310529678940141 75.7081352365775, 4.582309829089791 87.72963499328121 M11.756695716779456 58.948488965697315 C9.455771389885042 70.65675491506013, 5.718022661876785 81.7061422614795, 3.5242152353934943 88.44550267936661" stroke="#000000" stroke-width="1" fill="none"></path></g></g><g><g transform="translate(700.0234375 343.1640625) rotate(0 -0.10917952476069104 -43.33532369379887)"><path d="M-0.6427528392523527 0.8776964496821165 C-0.7083310972899198 -13.33802749005457, -0.6107625734061003 -71.15833192753296, -0.535771144554019 -85.53470001704991 M1.2206631908006966 0.2928831404261292 C1.0169807616062463 -14.28928671322142, -1.11330327777192 -72.91067237001533, -1.4390222403220834 -87.54834383727983" stroke="#000000" stroke-width="1" fill="none"></path></g><g transform="translate(700.0234375 343.1640625) rotate(0 -0.10917952476069104 -43.33532369379887)"><path d="M11.124464716389179 -59.53544955428434 C6.86471285827411 -67.05399960363663, 3.9231316765626074 -74.40878430799563, -1.5676208986900748 -87.13418191859499 M9.836929493210613 -60.148207606819696 C6.005931164880601 -67.43735640406426, 3.1746542869970167 -77.09827742848813, -2.4143866580910984 -87.36415396539495" stroke="#000000" stroke-width="1" fill="none"></path></g><g transform="translate(700.0234375 343.1640625) rotate(0 -0.10917952476069104 -43.33532369379887)"><path d="M-9.387530435396174 -58.920585927962435 C-7.735692999186178 -66.50643586622762, -4.766916439860731 -74.03838831885403, -1.5676208986900748 -87.13418191859499 M-10.67506565857474 -59.53334398049779 C-8.347127044230495 -67.01085427288915, -5.014573136075971 -76.85654110488528, -2.4143866580910984 -87.36415396539495" stroke="#000000" stroke-width="1" fill="none"></path></g></g><g transform="translate(255.79296875 10) rotate(0 294.794921875 238.509765625)"><path d="M0 0 C204.91213566359696 0, 409.8242713271939 0, 589.58984375 0 M589.58984375 0 C589.58984375 137.28427806136497, 589.58984375 274.56855612272994, 589.58984375 477.01953125 M589.58984375 477.01953125 C412.9108946596007 477.01953125, 236.2319455692013 477.01953125, 0 477.01953125 M0 477.01953125 C0 380.10664326618826, 0 283.1937552823765, 0 0" stroke="#000000" stroke-width="1.5" fill="none" stroke-dasharray="12 8"></path></g><g><g transform="translate(169.49416050145942 77.51228994840079) rotate(0 113.74300189043126 -1.1289199001125212)"><path d="M0.8542021226137877 1.1906606901437045 C38.49952007175333 1.0222414555597028, 187.71277566109333 -1.1617741110683881, 225.35988842529636 -1.4926754165752414 M-0.1564804923534393 0.7701536071300508 C37.91405807264991 0.26608273403820604, 189.90561392110322 -2.886125173917552, 227.64248427321596 -3.448500490368772" stroke="#000000" stroke-width="1" fill="none"></path></g><g transform="translate(169.49416050145942 77.51228994840079) rotate(0 113.74300189043126 -1.1289199001125212)"><path d="M201.6268803016091 5.958685694694223 C207.4203829159269 5.282833597206894, 215.78889497219896 0.004142968399923674, 225.78849616033418 -5.3086974067552575 M199.89239338178135 6.540578688926699 C204.99375208753833 5.653063182504114, 212.1142323216587 2.6288119718765692, 228.44225503170324 -3.71421755067395" stroke="#000000" stroke-width="1" fill="none"></path></g><g transform="translate(169.49416050145942 77.51228994840079) rotate(0 113.74300189043126 -1.1289199001125212)"><path d="M201.25467472470785 -14.559147168314562 C207.06151698913442 -9.95775937977125, 215.52580934950987 -9.956560632598931, 225.78849616033418 -5.3086974067552575 M199.5201878048801 -13.977254174082086 C204.5960595325957 -10.313511808418232, 211.79906982319554 -8.788293558866854, 228.44225503170324 -3.71421755067395" stroke="#000000" stroke-width="1" fill="none"></path></g></g><g><g transform="translate(396.27734375 102.5625) rotate(0 -115.04684766100576 3.251315520169001)"><path d="M0.31761842854321 0.5591642092913389 C-38.21356340407965 1.6378487692791273, -191.256098921579 4.8335919506937515, -229.99643030559346 5.654281286682516 M-0.9747706258110702 -0.19287852616980672 C-39.679296221189325 1.0790340681950796, -192.27142978344176 5.627558973943467, -230.41131375055463 6.695509566507816" stroke="#000000" stroke-width="1" fill="none"></path></g><g transform="translate(396.27734375 102.5625) rotate(0 -115.04684766100576 3.251315520169001)"><path d="M-201.5989315270196 -2.68805636902416 C-215.31206475894896 -1.738990587011778, -226.72751127079988 2.9714838479824905, -231.46422255668492 5.734528851277709 M-201.94596586494998 -4.382582606459799 C-211.72962637503298 -0.23597732519818315, -221.00510511367744 2.1357225719937585, -230.9219696314603 6.825482368051588" stroke="#000000" stroke-width="1" fill="none"></path></g><g transform="translate(396.27734375 102.5625) rotate(0 -115.04684766100576 3.251315520169001)"><path d="M-201.00210785179496 17.824471605034294 C-214.8137087253337 10.58607028696245, -226.4674202138384 7.107497936890475, -231.46422255668492 5.734528851277709 M-201.34914218972534 16.129945367598655 C-211.1665335578686 13.60463217795916, -220.63597686144124 9.30986804359669, -230.9219696314603 6.825482368051588" stroke="#000000" stroke-width="1" fill="none"></path></g></g><g transform="translate(224.15625 49.37109375) rotate(0 53 9)"><text x="0" y="14" font-family="Helvetica, Segoe UI Emoji" font-size="16px" fill="#000000" text-anchor="start" style="white-space: pre;" direction="ltr">HTTP Request</text></g><g transform="translate(225.3046875 121.02734375) rotate(0 59 9)"><text x="0" y="14" font-family="Helvetica, Segoe UI Emoji" font-size="16px" fill="#000000" text-anchor="start" style="white-space: pre;" direction="ltr">HTTP Response</text></g><g transform="translate(216.578125 143.421875) rotate(0 58.1015625 16.8515625)"><path d="M9.323036940768361 -0.5705509204417467 M7.776897547766566 1.7348094899207354 C33.937214782529196 -2.2551429897684283, 56.291743977130686 -2.57353771032278, 109.36665946058929 1.85866585560143 M8.614193097688258 0.8282997598871589 C37.397577334395464 -0.041743675613761355, 64.44733520544105 -0.25243605151212256, 107.23904757294804 -0.09476247522979975 M107.77734375 0 C111.97088143415749 -1.0002605337649584, 116.62689963169396 2.833840249106288, 115.64424136467278 6.5538203697651625 M106.45110210962594 0.9897775035351515 C111.95288422470912 -0.9435578159056603, 114.32379341786728 2.193792621139437, 117.98547911709174 10.641367385629565 M114.72328677998375 8.928500345836074 C116.7012604803488 14.968565409789154, 116.05645253694973 20.89978707341288, 115.75439441817798 25.601866119306216 M116.22387541090029 9.086053317955157 C116.75155102715696 14.087896302770606, 115.74118341576875 17.602215762750347, 116.76012719623868 25.662389637408705 M116.203125 25.27734375 C116.91081795282662 31.941057143732905, 114.24594763107598 32.42325591854751, 106.06021776981652 34.31493556313217 M115.64269420690835 24.722530422732234 C117.15737002855167 28.856304467562587, 115.54951621359214 32.58230255628005, 106.17410512631758 34.17152122640982 M107.67248761467636 32.19261679239571 C67.67809310707017 33.37280762877759, 29.368389074927833 35.49466711964902, 7.011433182284236 33.70754829235375 M108.3913641134277 33.08008801843971 C69.81918778762702 34.33975342702492, 32.88338021335221 34.032652207132415, 8.128870413638651 33.52014300134033 M8.42578125 33.703125 C3.574639054015279 35.47599512152374, -1.7863639276474714 29.321379778906703, -1.4481146018952131 23.33739566616714 M6.831120105460286 33.815016923472285 C4.438512555416674 33.11378126824275, -1.8112756543792783 31.007418707851322, 1.3052936202846466 26.905688510183246 M1.274848031732108 24.93074599059546 C-0.5328497173442883 20.8755178215215, 0.4199121714624199 16.630603184948995, -1.0703930609954113 9.74327144049821 M0.017525683901112643 25.311193840608393 C-0.5101846756375743 21.87202578706674, -0.5598691006735316 17.70490933724468, -0.6421194438717066 7.757012368850337 M0 8.42578125 C-1.6670497935265303 4.648010430857539, 1.2911954242736101 1.6654188614338636, 9.364849718287587 1.774032710120082 M-0.5661397259682417 8.295069037005305 C-1.54897628063336 0.5745512970723214, 1.1453484780155123 1.8874760367907584, 6.575162763055414 0.795016697887331" stroke="#000000" stroke-width="1" fill="none"></path></g><g transform="translate(246.6796875 151.2734375) rotate(0 28 9)"><text x="28" y="14" font-family="Helvetica, Segoe UI Emoji" font-size="16px" fill="#000000" text-anchor="middle" style="white-space: pre;" direction="ltr">JSON   </text></g><g><g transform="translate(399.4609375 284.859375) rotate(0 0.7888300905748906 30.63645495373757)"><path d="M-0.2468123126775026 -0.27714525572955606 C0.014857342963417397 10.02841156211992, 1.1901593914876383 52.432033374781405, 1.4041731785982847 62.74116036780178 M1.8244724938273431 -1.4682504603266717 C1.9007513361175856 8.387355106969673, -0.07235626568396908 50.16874604413907, 0.20484207123517972 60.82927684336901" stroke="#000000" stroke-width="1" fill="none"></path></g><g transform="translate(399.4609375 284.859375) rotate(0 0.7888300905748906 30.63645495373757)"><path d="M-10.09789401348814 31.691500224057968 C-5.936483127990073 39.21057860188471, -5.059478506050817 50.293799679319164, -1.252458355203271 59.4803922329098 M-10.376378012449887 32.99038634158337 C-7.4816460691580335 41.07267444989676, -4.496570738624748 48.66999298106208, 0.6743763053789733 61.71629319842905" stroke="#000000" stroke-width="1" fill="none"></path></g><g transform="translate(399.4609375 284.859375) rotate(0 0.7888300905748906 30.63645495373757)"><path d="M10.42105163274055 31.9962492239776 C8.708053308649543 39.385911916865, 3.7129541966060327 50.38192004626552, -1.252458355203271 59.4803922329098 M10.142567633778803 33.295135341503 C6.890818313919189 41.29437973467751, 3.7294757693060276 48.800411182537786, 0.6743763053789733 61.71629319842905" stroke="#000000" stroke-width="1" fill="none"></path></g></g><g><g transform="translate(374.7890625 345.86328125) rotate(0 -0.19225072761565798 -28.62704390995205)"><path d="M0.8576050590723752 -0.14619351737201214 C0.7904259394854306 -9.73827718210717, -1.0231549669057132 -47.45741792234281, -1.340870814397931 -57.107894302532074 M-0.15129101425409308 -1.2685490593314173 C0.23617899268865594 -10.692646009226639, 1.2257670721411706 -46.231671090225376, 0.894763263165951 -55.55533621639013" stroke="#000000" stroke-width="1" fill="none"></path></g><g transform="translate(374.7890625 345.86328125) rotate(0 -0.19225072761565798 -28.62704390995205)"><path d="M10.409463277192048 -30.216530802615587 C8.436781030386843 -35.616711102839425, 4.703290778595157 -39.26274656713863, 2.556709081158042 -55.768755920156835 M9.803907015466324 -29.022840565026407 C9.127223981212545 -34.69964238677076, 5.741568657852141 -40.260564895549095, -0.0897328972443936 -56.16949538413435" stroke="#000000" stroke-width="1" fill="none"></path></g><g transform="translate(374.7890625 345.86328125) rotate(0 -0.19225072761565798 -28.62704390995205)"><path d="M-9.133005896239327 -30.22590573710037 C-6.7701502657964525 -35.76367054197531, -6.16813737507278 -39.40762617400976, 2.556709081158042 -55.768755920156835 M-9.73856215796505 -29.03221549951119 C-6.489589632394409 -34.69160069278438, -5.949671513606576 -40.250640021217954, -0.0897328972443936 -56.16949538413435" stroke="#000000" stroke-width="1" fill="none"></path></g></g><g><g transform="translate(354.3203125 231.53125) rotate(0 -21.810225322246538 -27.83221016637981)"><path d="M-0.5510237742215395 0.731394552066922 C-7.911165667449434 -8.653454284990827, -37.06275939630965 -46.73642342997094, -44.63482717759907 -56.39581488482654 M1.360550014972687 0.06977274656295784 C-6.015828286012014 -9.122714919249217, -36.945030073324844 -45.554273629983264, -44.98100065946579 -54.97595807313919" stroke="#000000" stroke-width="1" fill="none"></path></g><g transform="translate(354.3203125 231.53125) rotate(0 -21.810225322246538 -27.83221016637981)"><path d="M-17.687445744048517 -38.228909060154194 C-26.061424308646266 -44.46120966286167, -34.235799593912404 -49.96406679266219, -44.68108266539872 -53.63446646146476 M-18.340366210896235 -39.35276426633828 C-25.5643749835412 -43.654093000359474, -31.989032687800318 -48.4015671081016, -44.7301163193211 -54.537974948622285" stroke="#000000" stroke-width="1" fill="none"></path></g><g transform="translate(354.3203125 231.53125) rotate(0 -21.810225322246538 -27.83221016637981)"><path d="M-33.324353178858075 -24.93954759087972 C-37.615281861200344 -34.56195107175584, -41.71621124902588 -43.52671364432402, -44.68108266539872 -53.63446646146476 M-33.97727364570579 -26.06340279706381 C-37.1516317969715 -33.64863649121195, -39.55636339530367 -41.81253109796605, -44.7301163193211 -54.537974948622285" stroke="#000000" stroke-width="1" fill="none"></path></g></g><g transform="translate(633.78515625 498.48828125) rotate(0 108.873046875 50.4921875)"><path d="M63.552325349177764 5.097245526470381 C76.00814331950824 1.9204432117419188, 94.70499051728801 0.9478430333940082, 109.71029223056341 0.7668143058071593 C124.71559394383881 0.5857855782203103, 139.8998158735667 1.263900698193647, 153.58413562883015 4.011073160949287 C167.2684553840936 6.758245623704928, 181.9347277869005 12.01271110094591, 191.81621076214418 17.249849082341 C201.69769373738785 22.48698706373609, 208.63048216574225 28.653492687443798, 212.87303348029218 35.43390104931983 C217.1155847948421 42.214309411195856, 219.363134111043 50.90262884451854, 217.27151864944375 57.932299253597186 C215.1799031878445 64.96196966267584, 208.65709018315678 71.76745398246469, 200.3233407106967 77.61192350379173 C191.9895912382366 83.45639302511877, 179.85903998908196 89.03464782098368, 167.26902181468327 92.99911638155946 C154.67900364028458 96.96358494213524, 139.50373601932034 100.4230018472895, 124.78323166430457 101.39873486724646 C110.06272730928879 102.37446788720342, 93.43142252420489 100.94406836900619, 78.94599568458864 98.8535145013012 C64.46056884497239 96.76296063359622, 49.4881123616027 93.37012315470142, 37.87067062660702 88.85541166101659 C26.253228891611343 84.34070016733176, 15.715018410045811 78.08290053970114, 9.241345274614574 71.7652455391922 C2.767672139183335 65.44759053868324, -1.034593043385674 57.96136807491133, -0.9713681859804097 50.949481657962934 C-0.9081433285751453 43.93759524101454, 3.2035332687862024 36.01979499782266, 9.62069441904616 29.693927037501844 C16.037855569306117 23.36805907718103, 26.70876338105581 17.49962993637521, 37.531598715579335 12.99427389603806 C48.35443405010286 8.488917855700908, 66.2568894273162 4.6247690411818825, 74.55770642618731 2.661790795478943 C82.85852342505842 0.6988125497760034, 86.59213747853023 0.3583892465145553, 87.33650070880599 1.216404421820421 M67.28823307001622 3.570366803279363 C80.06709188447249 0.33603790169368564, 97.12341289629649 0.9102220958666187, 112.07396714304026 1.3991696000217146 C127.02452138978404 1.8881171041768106, 143.40994630636098 3.8558843255913757, 156.9915585504789 6.504051828209938 C170.57317079459685 9.152219330828501, 184.18670036299935 12.015982703018668, 193.56364060774789 17.28817461573309 C202.94058085249642 22.560366528447513, 209.62377320763488 30.952284353878213, 213.25320001897018 38.13720330449647 C216.88262683030547 45.32212225511472, 217.91460884065384 53.746843280398, 215.34020147575956 60.39768831944262 C212.76579411086527 67.04853335848725, 206.34545092868814 72.62348791317541, 197.8067558296044 78.04227353876423 C189.2680607305207 83.46105916435306, 176.77304017838352 89.1841816371855, 164.1080308812572 92.91040207297559 C151.4430215841309 96.63662250876567, 136.46111888975148 99.63611534956296, 121.81670004684653 100.39959615350472 C107.1722812039416 101.16307695744648, 90.34175220782556 99.38705979201832, 76.24151782382754 97.49128689662612 C62.1412834398295 95.59551400123392, 48.37103657182855 93.41022505128149, 37.215293742858336 89.02495878115155 C26.059550913888124 84.63969251102162, 15.721795901044668 77.82137454560474, 9.307060850006252 71.1796892758465 C2.8923257989678364 64.53800400608826, -1.4147838044725276 56.162749008442944, -1.273116563372156 49.17484716260213 C-1.1314493222717843 42.18694531676131, 3.3337550145827306 35.441144446422, 10.157064296608482 29.25227820080159 C16.980373578634232 23.06341195518118, 30.466578708901842 16.152983730227696, 39.66673912878235 12.041649688879673 C48.866899548662865 7.930315647531651, 60.66579016264049 5.87175610077908, 65.35802681589155 4.58427395271346 C70.0502634691426 3.2967918046478397, 66.6740174032998 3.4571675365215455, 67.82015904828869 4.316756800485955" stroke="#000000" stroke-width="1" fill="none"></path></g><g transform="translate(696.19140625 538.0546875) rotate(0 50 9)"><text x="0" y="14" font-family="Helvetica, Segoe UI Emoji" font-size="16px" fill="#000000" text-anchor="start" style="white-space: pre;" direction="ltr">Elastic search</text></g><g transform="translate(710.283203125 554.75) rotate(0 34.5 9)"><text x="34.5" y="14" font-family="Helvetica, Segoe UI Emoji" font-size="16px" fill="#000000" text-anchor="middle" style="white-space: pre;" direction="ltr">Database</text></g><g><g transform="translate(744.16015625 431.84375) rotate(0 0.42519863954635184 33.006559959650076)"><path d="M1.0624053429812192 0.16831104643642902 C1.2797145199030637 11.225892324124773, 0.523125572130084 54.42600270795326, 0.4136162828654051 65.62940269596875 M0.1610294187068939 -0.7889295995235444 C0.3456839215755463 10.474880456527073, -0.2094558870792389 55.73638521472613, -0.24960485100746155 66.80204951882362" stroke="#000000" stroke-width="1" fill="none"></path></g><g transform="translate(744.16015625 431.84375) rotate(0 0.42519863954635184 33.006559959650076)"><path d="M-9.999775835170796 39.432851570324914 C-9.341974560066738 45.71478236075487, -4.144729667005302 51.38248709465881, 0.4212659876793623 66.40830377049744 M-9.282396366677633 38.05717520382436 C-6.755202062629846 48.17082240655329, -2.2283208882711154 58.7072631860938, -0.47606132831424475 67.52143344309181" stroke="#000000" stroke-width="1" fill="none"></path></g><g transform="translate(744.16015625 431.84375) rotate(0 0.42519863954635184 33.006559959650076)"><path d="M10.52075228663404 39.599968260264646 C6.545739864173548 46.02583784618658, 7.109173811754358 51.65580538627082, 0.4212659876793623 66.40830377049744 M11.238131755127204 38.22429189376409 C6.070013394928021 48.343088269721896, 2.902740457407731 58.81686879220513, -0.47606132831424475 67.52143344309181" stroke="#000000" stroke-width="1" fill="none"></path></g></g><g><g transform="translate(716.28515625 497.9765625) rotate(0 -0.6988518271020325 -32.66224337499585)"><path d="M0.35502360574901104 -1.055526889488101 C0.0636628658821185 -12.123811420922479, -0.6503447779764733 -55.56282978566985, -1.1236387301236392 -66.32920429818333 M-0.9177277305722237 1.0047175481915476 C-1.3638729758063952 -9.856425567169982, -1.8843887959917387 -53.30162340054909, -1.724387495815754 -64.73287302225827" stroke="#000000" stroke-width="1" fill="none"></path></g><g transform="translate(716.28515625 497.9765625) rotate(0 -0.6988518271020325 -32.66224337499585)"><path d="M6.808746669938078 -35.451138350037 C5.1127006098865495 -47.609505262828215, 2.6150612661039077 -58.03376359736893, -2.2684956500679254 -65.37758692882954 M8.957955799562146 -36.977242266614994 C5.35380894189438 -42.6206687663163, 2.7801070854862457 -50.38344812152791, -2.347752345763147 -65.1775448328629" stroke="#000000" stroke-width="1" fill="none"></path></g><g transform="translate(716.28515625 497.9765625) rotate(0 -0.6988518271020325 -32.66224337499585)"><path d="M-13.712448916293887 -35.4280278015075 C-8.184150618974291 -47.65524321359407, -3.4574301015028412 -58.08763747366926, -2.2684956500679254 -65.37758692882954 M-11.563239786669818 -36.95413171808549 C-10.02189228030506 -42.70715331696184, -7.449888030887663 -50.47572766058812, -2.347752345763147 -65.1775448328629" stroke="#000000" stroke-width="1" fill="none"></path></g></g></svg>